PathFileType	4	(X/Y/Z)	C:\Users\chris\Documents\GitHub\baseballds\vids\pitch5_Sports2D\pitch5_Sports2D_px_person03.trc
DataRate	CameraRate	NumFrames	NumMarkers	Units	OrigDataRate	OrigDataStartFrame	OrigNumFrames
30	30	7	22	m	30	130	149
Frame#	Time	Hip			RHip			RKnee			RAnkle			RBigToe			RSmallToe			RHeel			LHip			LKnee			LAnkle			LBigToe			LSmallToe			LHeel			Neck			Head			Nose			RShoulder			RElbow			RWrist			LShoulder			LElbow			LWrist		
		X1	Y1	Z1	X2	Y2	Z2	X3	Y3	Z3	X4	Y4	Z4	X5	Y5	Z5	X6	Y6	Z6	X7	Y7	Z7	X8	Y8	Z8	X9	Y9	Z9	X10	Y10	Z10	X11	Y11	Z11	X12	Y12	Z12	X13	Y13	Z13	X14	Y14	Z14	X15	Y15	Z15	X16	Y16	Z16	X17	Y17	Z17	X18	Y18	Z18	X19	Y19	Z19	X20	Y20	Z20	X21	Y21	Z21	X22	Y22	Z22
130	4.333333333333333	1488.0993922189039	473.40017734983724	0.0	1486.4814998650388	473.5800182371181	0.0	1487.0209122749488	486.7027253903328	0.0	1488.8186280665248	500.00532082269876	0.0	1482.3469558210948	503.2411502520605	0.0	1482.7066338763157	502.16251614803264	0.0	1490.0767482456486	501.62324935553767	0.0	1489.7173617895214	473.57991393220505	0.0	1490.0770340117758	487.2420671391981	0.0	1491.1555970721952	500.90412269451537	0.0	1487.3812374627478	503.78041932352545	0.0	1487.3804744896358	503.0612708195803	0.0	1492.773331069015	501.9827647942483	0.0	1488.458888655815	454.1653329441966	0.0	1486.4813429056958	444.81770089467034	0.0	1484.8636088491578	450.2104556068246	0.0	1487.3804000795008	457.22117668473	0.0	1487.3802144367478	465.490596773566	0.0	1486.122116847944	474.47888562641	0.0	1490.9757350359143	456.50215716419666	0.0	1491.6948760443838	465.85007024656267	0.0	1488.099616150916	475.0181121606592	0.0
131	4.366666666666666	1488.0996966797118	473.4003803660826	0.0	1486.4818008331958	473.58014461626044	0.0	1487.021120397635	486.7029556414219	0.0	1488.8187485594344	500.00547619030624	0.0	1482.347224047472	503.24124746205905	0.0	1482.7067619259205	502.1626682350594	0.0	1490.0770769427695	501.6234044826645	0.0	1489.7175841014346	473.58013201286764	0.0	1490.0771340937793	487.2422335050131	0.0	1491.1557314544925	500.9042438864859	0.0	1487.3807364710947	503.7805308801038	0.0	1487.3806458792953	503.0614505432987	0.0	1492.7735622646314	501.9828886849318	0.0	1488.4591909903395	454.16563336442323	0.0	1486.4817565627459	444.8179847228161	0.0	1484.8639168184895	450.2108610643113	0.0	1487.380592662385	457.2215926639387	0.0	1487.3805501985305	465.49078285192445	0.0	1486.1222892648414	474.478977654554	0.0	1490.9759393234297	456.50252855104264	0.0	1491.6949962353756	465.8503121238591	0.0	1488.0997395911559	475.0182700434692	0.0
132	4.4	1488.0997646778976	473.4004178322867	0.0	1486.4818837898908	473.58016695305434	0.0	1487.0211626497262	486.7029722081518	0.0	1488.8187842745826	500.0054970810204	0.0	1482.3473026138727	503.2412425536136	0.0	1482.7068050491753	502.16266962417774	0.0	1490.0771702249992	501.62338287424245	0.0	1489.7176273324585	473.58018272029653	0.0	1490.077135386364	487.24224949492503	0.0	1491.1557289281586	500.9043017233985	0.0	1487.3805672614994	503.78053612428675	0.0	1487.3806831874726	503.0614889086661	0.0	1492.7736167922408	501.9828973175944	0.0	1488.459286577416	454.165680084766	0.0	1486.4818981658532	444.81795825025364	0.0	1484.8640070120634	450.2108970049293	0.0	1487.380678093041	457.22168715640225	0.0	1487.3806987532523	465.4907980282497	0.0	1486.1223333037874	474.4789829117814	0.0	1490.9759736459469	456.5026206789816	0.0	1491.6950136731728	465.8503373436238	0.0	1488.0997366854442	475.0182881268919	0.0
133	4.433333333333334	1488.0997301868786	473.400391923304	0.0	1486.4818555103666	473.5801504600894	0.0	1487.0211375093386	486.70293324323086	0.0	1488.8187738779027	500.00547437729244	0.0	1482.3472791233692	503.2412217045635	0.0	1482.706795910274	502.1626403564655	0.0	1490.077140331276	501.62334451301	0.0	1489.7175997753397	473.5801587544594	0.0	1490.077116266381	487.2422228265947	0.0	1491.1557016804438	500.904299364429	0.0	1487.380602835959	503.780516217625	0.0	1487.3806634130776	503.0614678929917	0.0	1492.7735916699507	501.982876247857	0.0	1488.459262697607	454.1656385222109	0.0	1486.481869491528	444.8178928899065	0.0	1484.863980035824	450.2108308910249	0.0	1487.3806719512527	457.2216406186894	0.0	1487.3806879008562	465.49076719925097	0.0	1486.122315815446	474.4789668339141	0.0	1490.9759463263515	456.5025819993973	0.0	1491.6949965816316	465.85029929964213	0.0	1488.0997114401657	475.01826389327664	0.0
134	4.466666666666667	1488.0997041263895	473.40037501275424	0.0	1486.4818288160839	473.5801399915921	0.0	1487.021119945654	486.7029156005998	0.0	1488.8187630424577	500.0054618969133	0.0	1482.3472550584493	503.2412149614195	0.0	1482.7067840889888	502.1626292692333	0.0	1490.0771110186006	501.62333456875297	0.0	1489.717581126916	473.58013996911507	0.0	1490.0771089479151	487.24220984084053	0.0	1491.155692106363	500.90428716734897	0.0	1487.3806491155933	503.7805078346751	0.0	1487.3806488003697	503.06145261458283	0.0	1492.7735717092144	501.9828667716013	0.0	1488.4592351559127	454.1656140151317	0.0	1486.4818311674662	444.81787392121254	0.0	1484.863952406046	450.21079942238947	0.0	1487.3806529530293	457.22160491862127	0.0	1487.38065480125	465.49075283532903	0.0	1486.1223007295075	474.4789598632543	0.0	1490.9759295101248	456.5025496661339	0.0	1491.6949868512447	465.8502803029232	0.0	1488.0997026803282	475.01825139727407	0.0
135	4.5	1488.0997012502087	473.400373837229	0.0	1486.4818244893906	473.5801393527774	0.0	1487.0211183782744	486.70291671110846	0.0	1488.8187610742973	500.0054617308182	0.0	1482.3472507656124	503.2412165522147	0.0	1482.7067815102407	502.16263090327544	0.0	1490.0771060404252	501.6233384058098	0.0	1489.7175796319298	473.58013772030347	0.0	1490.0771099875346	487.242210264327	0.0	1491.1556939040088	500.90428312211725	0.0	1487.3806592511469	503.7805086349828	0.0	1487.3806472727115	503.06145108399176	0.0	1492.7735692525148	501.98286739565106	0.0	1488.4592296545443	454.16561309769634	0.0	1486.4818226205598	444.81787971034385	0.0	1484.8639474784584	450.21080074000844	0.0	1487.380647135324	457.2216008392841	0.0	1487.3806446951094	465.49075356426897	0.0	1486.1222985793322	474.4789604357037	0.0	1490.9759286456751	456.5025452921783	0.0	1491.6949866023924	465.85028073272485	0.0	1488.0997043867505	475.01825152498174	0.0
136	4.533333333333333	1488.0997052904345	473.4003767141916	0.0	1486.4818281177193	473.58014116661417	0.0	1487.0211212383301	486.7029205761761	0.0	1488.8187624687587	500.00546411329583	0.0	1482.3472538915812	503.2412184604707	0.0	1482.706782872116	502.162633678153	0.0	1490.0771099407355	501.6233417709492	0.0	1489.717582731146	473.5801405677717	0.0	1490.0771118047733	487.2422129636316	0.0	1491.1556964430436	500.90428401567334	0.0	1487.3806539342322	503.7805105722317	0.0	1487.3806495695976	503.061453510149	0.0	1492.773572253323	501.98286948185427	0.0	1488.4592330147348	454.16561755755004	0.0	1486.4818269666973	444.8178855639546	0.0	1484.863951067924	450.21080738895796	0.0	1487.3806487056734	457.2216063224916	0.0	1487.3806474420367	465.4907566463138	0.0	1486.1223007388473	474.47896201220414	0.0	1490.9759316191185	456.5025500072429	0.0	1491.6949884157973	465.8502846114044	0.0	1488.0997067326339	475.0182540190869	0.0
